<?xml version="1.0" standalone="no"?>
<!DOCTYPE svg PUBLIC "-//W3C//DTD SVG 20010904//EN"
 "http://www.w3.org/TR/2001/REC-SVG-20010904/DTD/svg10.dtd">
<svg version="1.0" xmlns="http://www.w3.org/2000/svg"
 width="734.000000pt" height="734.000000pt" viewBox="0 0 734.000000 734.000000"
 preserveAspectRatio="xMidYMid meet">
<metadata>
Created by potrace 1.11, written by Peter Selinger 2001-2013
</metadata>
<g transform="translate(0.000000,734.000000) scale(0.100000,-0.100000)"
fill="#000000" stroke="none">
<path d="M3569 7330 c-14 -4 -66 -10 -116 -13 -49 -3 -108 -13 -129 -21 -34
-13 -129 -40 -229 -65 -17 -5 -71 -30 -120 -57 -50 -27 -112 -60 -140 -73 -49
-23 -120 -68 -147 -94 -7 -6 -44 -39 -83 -72 -38 -33 -82 -71 -98 -85 -16 -14
-72 -72 -124 -130 -52 -58 -107 -118 -122 -135 -29 -31 -113 -182 -126 -225
-4 -14 -22 -57 -41 -96 -18 -39 -36 -89 -39 -110 -4 -22 -13 -52 -20 -69 -7
-16 -20 -70 -29 -119 -9 -49 -20 -94 -24 -100 -5 -6 -8 -29 -8 -51 l1 -40 79
-7 c43 -4 93 -12 110 -18 17 -5 58 -8 91 -5 54 4 56 3 28 -7 -18 -6 -33 -18
-33 -26 0 -8 -3 -12 -7 -9 -3 4 -11 3 -17 -2 -6 -4 -61 -11 -123 -15 -97 -5
-113 -4 -121 10 -8 14 -10 14 -15 -5 -3 -11 -2 -23 2 -25 4 -3 69 -6 145 -7
75 -2 139 -7 142 -11 3 -5 14 -6 25 -3 11 4 19 2 19 -4 0 -6 -5 -11 -11 -11
-8 0 -8 -4 -1 -12 8 -10 -9 -13 -81 -13 -89 0 -133 -5 -189 -20 -26 -7 -28 -5
-28 24 0 17 -4 31 -10 31 -5 0 -10 -20 -10 -44 l0 -44 161 4 c137 3 159 2 150
-10 -9 -11 -9 -15 1 -19 8 -4 4 -8 -11 -13 -23 -7 -24 -8 -5 -15 14 -6 9 -8
-21 -9 -123 -4 -211 -13 -217 -23 -11 -17 -27 9 -21 33 5 19 -12 36 -22 21 -7
-13 11 -91 25 -105 8 -8 10 -7 5 5 -5 14 6 18 77 25 46 5 106 9 133 9 42 0 50
-3 53 -20 1 -12 -6 -25 -18 -33 -16 -10 -20 -10 -20 0 0 8 -4 7 -10 -3 -7 -12
-30 -15 -112 -16 l-103 -1 3 -29 c4 -36 24 -83 35 -83 5 0 11 9 14 20 5 18 21
25 46 21 4 0 7 3 7 8 0 12 44 23 102 26 43 2 47 1 38 -15 -5 -10 -32 -26 -60
-35 -27 -9 -52 -20 -55 -24 -2 -5 -25 -14 -50 -21 -33 -9 -45 -18 -45 -31 0
-15 7 -19 34 -19 40 0 66 8 66 21 0 6 -8 5 -19 -1 -11 -5 -28 -10 -38 -10 -17
1 -17 1 0 11 9 6 25 12 35 14 9 2 26 7 37 11 17 7 18 6 7 -8 -11 -14 -10 -16
8 -11 11 3 27 15 35 26 8 12 15 16 15 9 0 -6 5 -12 11 -12 5 0 7 5 3 12 -4 7
-3 8 5 4 14 -9 5 -26 -15 -26 -8 0 -14 -4 -14 -9 0 -5 -17 -15 -37 -22 -21 -6
-44 -16 -50 -22 -7 -5 -13 -6 -13 -1 0 5 -5 2 -10 -6 -8 -13 -11 -13 -19 -1
-5 7 -14 10 -20 7 -13 -8 -8 -44 10 -78 7 -12 11 -25 10 -28 -1 -2 3 -6 9 -8
7 -3 11 5 9 19 -3 34 10 59 31 59 10 0 23 7 30 15 7 8 18 14 24 13 6 -1 28 6
50 15 45 20 56 21 56 6 0 -5 -4 -8 -9 -4 -5 3 -13 0 -17 -6 -4 -7 -3 -9 4 -5
6 3 13 2 17 -4 4 -6 11 -8 16 -5 5 4 9 1 9 -6 0 -19 -41 -49 -66 -49 -13 0
-26 -5 -29 -11 -4 -5 -12 -8 -18 -6 -7 2 -29 -7 -49 -20 -21 -12 -42 -23 -47
-23 -18 0 -19 -15 -2 -47 13 -23 21 -29 32 -22 12 8 12 10 0 18 -12 8 -12 12
-2 25 8 9 19 16 26 16 8 0 15 3 17 8 5 12 79 43 89 37 5 -4 9 -1 9 5 0 15 62
9 67 -6 4 -12 -71 -57 -138 -84 -37 -15 -69 -38 -69 -52 0 -10 37 -11 42 0 5
13 129 79 163 87 24 5 28 4 17 -6 -18 -19 -15 -33 5 -18 11 9 10 3 -6 -18 -12
-18 -19 -38 -15 -44 4 -8 9 -7 15 2 5 9 9 10 9 2 0 -11 -63 -53 -81 -53 -16 0
-10 18 9 23 10 3 6 5 -11 6 -16 0 -26 -3 -23 -7 3 -5 -15 -17 -40 -27 -42 -17
-60 -45 -29 -45 8 0 15 4 15 10 0 13 60 43 68 34 4 -4 1 -9 -6 -11 -7 -3 -18
-10 -25 -17 -6 -7 -20 -15 -29 -19 -19 -7 -25 -42 -9 -52 5 -3 12 -19 16 -35
4 -16 17 -38 31 -49 13 -10 24 -26 24 -34 0 -14 91 -133 115 -149 8 -6 12
-409 7 -768 0 -59 -2 -244 -2 -352 0 -56 -3 -66 -15 -62 -8 4 -15 1 -15 -5 0
-6 -7 -11 -15 -11 -9 0 -15 -9 -15 -25 0 -14 -4 -26 -10 -26 -5 -1 -14 -2 -20
-3 -5 0 -10 -5 -10 -11 0 -5 19 -10 41 -9 34 1 38 -1 23 -9 -21 -12 -43 -37
-44 -51 0 -4 11 -6 25 -4 32 7 32 -5 0 -22 -25 -13 -35 -40 -15 -40 13 0 53
22 62 35 4 6 8 -10 8 -35 -1 -39 -2 -42 -12 -25 -12 20 -12 19 -17 -3 -4 -13
-23 -32 -46 -45 -22 -12 -42 -25 -45 -29 -3 -3 -16 -9 -30 -13 -14 -3 -41 -22
-60 -42 l-35 -35 40 17 c70 30 71 29 20 -10 -70 -53 -149 -136 -176 -184 -26
-47 -49 -54 -49 -14 0 20 -3 24 -11 16 -7 -7 -8 -19 -4 -30 5 -10 7 -24 6 -31
-1 -8 2 -19 8 -26 6 -7 6 -17 1 -26 -6 -8 -10 -28 -9 -45 0 -28 1 -27 18 15
13 35 14 47 5 53 -9 5 -4 16 20 40 17 17 47 56 65 85 18 28 36 52 40 52 5 0
21 11 37 25 16 14 47 38 69 53 22 15 42 30 43 35 2 4 9 7 16 7 7 0 21 9 31 20
10 11 24 20 32 20 7 0 13 6 13 14 0 7 7 19 16 27 14 12 15 6 13 -52 -2 -35 -7
-67 -12 -70 -12 -8 -17 -77 -9 -119 l6 -35 7 30 c5 21 7 8 7 -40 0 -38 -2 -65
-4 -58 -5 11 -33 7 -44 -7 -3 -3 -17 -13 -31 -22 -14 -9 -29 -29 -32 -45 -3
-16 -17 -35 -34 -45 -56 -34 -86 -66 -78 -85 7 -16 9 -15 14 7 7 26 12 28 48
15 12 -4 19 -13 17 -20 -3 -7 0 -23 6 -35 10 -20 10 -21 -8 -16 -14 5 -26 0
-39 -17 -10 -13 -24 -22 -31 -19 -9 3 -12 -3 -10 -14 2 -10 -3 -19 -9 -20 -26
-3 -27 -6 -8 -14 17 -7 16 -9 -10 -9 -48 -1 -109 -49 -98 -77 8 -21 31 -17 38
7 11 33 43 59 73 59 63 0 71 2 83 17 11 13 9 14 -20 10 -22 -4 -31 -2 -28 6 2
7 12 11 21 11 9 -1 16 1 16 5 0 4 7 8 15 8 8 0 12 -4 9 -8 -2 -4 0 -11 6 -14
6 -4 -12 -27 -41 -55 -51 -48 -75 -55 -66 -20 3 11 -1 17 -9 16 -17 -3 -31
-16 -17 -16 13 0 24 -38 13 -45 -5 -3 -11 3 -13 12 -3 12 -5 8 -6 -9 -1 -18
-12 -36 -36 -54 -19 -15 -38 -38 -41 -51 -5 -19 -9 -21 -15 -11 -7 10 -9 9 -9
-4 0 -10 -4 -18 -9 -18 -8 0 -22 120 -19 165 1 11 1 49 0 85 -2 46 -5 61 -12
50 -11 -17 -14 -692 -4 -777 9 -70 24 -57 24 20 1 57 8 120 28 250 4 26 12 48
17 47 6 0 10 3 10 8 1 17 48 102 56 102 6 0 8 4 4 9 -3 5 -1 12 5 16 19 12 10
-24 -10 -43 l-21 -19 22 -6 c13 -4 31 1 43 10 16 12 17 14 4 10 -12 -4 -18 -1
-18 7 0 8 14 19 30 25 17 5 30 12 30 15 0 3 -8 3 -17 -1 -15 -5 -16 -3 -5 8 8
9 15 10 23 2 7 -7 5 -15 -7 -28 -13 -13 -14 -19 -5 -25 9 -5 7 -9 -8 -13 -12
-3 -21 -10 -21 -15 0 -15 33 -24 41 -11 4 6 12 8 18 5 6 -4 11 -3 11 3 0 5 -6
11 -12 14 -7 3 -4 5 7 5 11 0 30 3 43 6 13 3 20 1 17 -5 -4 -5 -10 -7 -15 -4
-8 5 -42 -56 -46 -84 -2 -7 -7 -18 -13 -24 -14 -14 -14 -50 -1 -42 18 11 42
-17 36 -41 -4 -16 0 -26 11 -33 16 -9 16 -10 2 -11 -13 0 -20 -17 -30 -67 -8
-38 -13 -78 -11 -90 1 -12 -2 -24 -8 -28 -5 -3 -10 -20 -10 -37 0 -18 -11 -45
-26 -65 -14 -18 -20 -33 -13 -33 9 0 8 -4 -1 -15 -6 -8 -9 -24 -5 -37 6 -23 6
-23 -8 1 -11 18 -16 20 -20 10 -3 -8 -6 -1 -6 14 -1 16 3 26 9 22 18 -11 10 7
-12 26 -26 23 -42 24 -62 3 -18 -18 -22 -39 -4 -28 7 4 8 3 4 -5 -6 -9 -11 -9
-23 0 -24 20 -34 -8 -27 -76 9 -97 65 -317 104 -410 5 -11 18 -54 30 -95 38
-133 109 -260 200 -359 8 -9 23 -28 32 -43 14 -21 24 -25 52 -23 48 5 65 16
133 88 99 107 195 297 237 472 10 39 23 94 31 122 12 49 12 55 -6 77 -16 20
-18 32 -11 63 5 21 5 47 1 58 -5 14 -8 15 -9 5 0 -11 -6 -8 -21 9 -11 13 -18
29 -16 36 3 7 -7 9 -29 7 -21 -3 -34 0 -34 7 0 7 8 11 18 9 12 -2 16 3 14 17
-1 11 -3 30 -4 42 0 13 -5 20 -10 17 -5 -3 -6 -13 -4 -22 3 -10 2 -22 -2 -28
-12 -19 -69 27 -67 54 1 13 -4 22 -12 22 -22 0 -104 94 -91 104 12 11 57 14
60 5 2 -7 9 -5 17 5 12 14 11 16 -7 16 -27 0 -36 15 -17 30 12 10 22 5 55 -31
22 -24 40 -48 40 -55 0 -13 26 -27 49 -28 8 -1 15 -9 17 -19 4 -26 12 -33 26
-19 8 8 8 15 -2 27 -7 8 -9 15 -4 15 5 0 5 4 -1 8 -20 14 -57 74 -44 70 8 -2
20 -17 27 -31 7 -15 17 -25 22 -22 11 7 -5 52 -24 75 -8 8 -21 30 -30 48 -14
27 -15 36 -5 48 9 11 9 18 1 26 -18 18 -14 32 3 18 14 -11 14 -10 5 16 -6 16
-15 31 -19 34 -4 3 -15 16 -24 30 -13 19 -17 21 -17 7 0 -9 -4 -17 -10 -17 -5
0 -10 4 -10 9 0 5 -11 16 -25 25 -23 15 -24 15 -18 -1 4 -10 12 -22 20 -26 7
-4 13 -15 13 -24 0 -13 -3 -14 -12 -5 -9 9 -16 8 -29 -4 -10 -9 -23 -13 -29
-9 -8 5 -5 12 7 22 17 14 17 14 -5 10 -12 -3 -20 -1 -16 4 3 5 -2 9 -10 9 -9
0 -16 5 -16 11 0 7 -8 18 -18 25 -16 12 -15 13 5 9 26 -4 40 10 20 22 -20 12
-28 41 -12 47 9 3 15 -3 17 -16 2 -11 14 -28 27 -37 24 -15 24 -15 12 7 -6 12
-16 22 -21 22 -6 0 -10 9 -10 20 0 11 -6 23 -14 26 -21 8 -28 34 -15 50 8 10
8 14 0 14 -16 0 -14 16 5 35 10 9 20 12 23 7 3 -5 16 -12 29 -16 12 -4 22 -14
22 -22 0 -8 7 -14 15 -14 8 0 15 -4 15 -8 0 -5 18 -28 40 -51 39 -41 51 -76
29 -83 -6 -2 -2 -14 11 -28 l21 -25 -4 28 c-5 34 5 35 23 2 7 -14 17 -25 22
-25 4 0 8 -7 8 -15 0 -8 4 -15 9 -15 13 0 21 27 14 47 -4 11 -3 14 5 9 18 -11
14 15 -7 51 -20 31 -20 31 2 37 17 4 19 8 9 18 -17 17 -16 44 1 29 19 -15 29
-3 16 20 -9 18 -5 23 14 20 17 -3 5 54 -20 97 -25 43 -83 111 -83 98 0 -10 23
-48 42 -70 10 -11 16 -21 14 -24 -3 -2 -19 12 -35 31 -17 19 -38 34 -47 33 -9
0 -21 8 -28 19 -6 11 -17 25 -25 31 -11 9 -11 11 2 11 8 0 20 -11 26 -24 6
-12 18 -23 27 -23 12 0 6 10 -20 34 -40 39 -49 64 -16 46 14 -7 20 -7 20 0 0
5 -6 10 -14 10 -8 0 -17 7 -20 16 -8 22 -8 26 4 19 6 -3 10 -1 10 4 0 6 -7 11
-16 11 -9 0 -27 9 -41 20 -19 14 -21 20 -10 20 9 0 15 6 13 13 -3 6 -7 24 -10
39 -4 18 -11 25 -20 22 -8 -3 -16 4 -20 20 -3 14 -13 26 -21 26 -8 0 -15 5
-15 11 0 6 -8 8 -18 5 -13 -5 -18 0 -20 19 -1 14 3 25 8 25 6 0 10 -4 10 -10
0 -5 9 -10 20 -10 12 0 20 -7 20 -16 0 -10 6 -14 15 -10 13 5 20 -10 16 -36 0
-5 7 -8 18 -8 10 0 24 -7 31 -16 8 -8 21 -19 31 -24 14 -8 16 -6 12 9 -3 12
-11 17 -19 14 -9 -3 -14 2 -14 16 0 12 -4 21 -8 21 -4 0 -13 14 -19 31 -8 20
-16 28 -24 23 -8 -5 -10 -2 -6 8 4 11 -1 18 -14 21 -10 3 -19 1 -19 -4 0 -5
-5 -9 -11 -9 -6 0 -8 9 -4 20 5 16 2 20 -14 20 -12 0 -21 5 -21 10 0 19 -24
37 -42 32 -20 -5 -23 5 -9 27 5 7 14 10 20 7 6 -4 11 -3 11 3 0 5 -5 11 -11
13 -14 5 -23 98 -9 98 5 0 9 -3 8 -7 -3 -15 14 -43 23 -37 5 3 9 0 9 -5 0 -6
-4 -11 -10 -11 -5 0 -10 -4 -10 -10 0 -11 31 -1 43 14 6 8 10 7 14 -1 7 -18
23 -16 23 1 0 8 -11 23 -25 34 -14 11 -25 23 -25 26 0 4 11 -1 25 -10 31 -20
33 -1 3 21 -16 12 -19 19 -10 22 6 3 12 9 12 14 0 6 -8 6 -19 -1 -11 -5 -23
-10 -26 -10 -9 0 18 26 35 34 9 3 5 4 -7 2 -30 -6 -39 10 -10 18 l22 6 -21 18
c-18 16 -20 20 -7 28 19 12 8 38 -23 54 -13 7 -24 19 -24 26 0 7 -4 16 -10 19
-6 3 -10 -5 -10 -18 0 -18 9 -29 35 -41 39 -19 48 -37 13 -28 -14 3 -19 2 -14
-6 4 -7 1 -12 -9 -12 -10 0 -13 5 -9 13 6 9 5 9 -8 0 -12 -10 -15 -40 -17
-150 -1 -76 -4 -140 -7 -143 -3 -2 -4 218 -3 490 1 272 0 578 -1 680 -5 369
-1 570 13 568 6 -2 11 3 9 10 -1 7 5 15 13 18 8 4 15 12 15 20 0 8 7 14 15 14
9 0 20 11 25 25 6 16 15 23 25 19 8 -4 17 0 21 9 9 24 30 27 31 5 2 -20 -31
-61 -41 -51 -3 4 -6 -4 -6 -16 0 -12 -9 -39 -20 -61 -11 -22 -20 -46 -20 -53
0 -13 60 -67 75 -67 3 0 16 -9 28 -20 12 -12 38 -33 58 -48 20 -15 57 -45 83
-67 27 -22 70 -52 97 -66 26 -14 54 -31 61 -36 25 -20 65 -24 78 -7 12 13 10
14 -13 10 -22 -4 -27 -1 -27 16 0 12 3 18 7 15 3 -4 13 -1 21 6 13 10 14 9 8
-1 -4 -7 -1 -15 9 -18 9 -4 13 -13 11 -23 -3 -9 -2 -20 2 -26 7 -9 14 -12 54
-20 35 -7 134 -38 166 -51 18 -8 46 -14 63 -14 17 0 28 -4 25 -8 -10 -16 63
-52 139 -67 44 -9 87 -20 95 -24 8 -4 37 -7 63 -6 26 1 50 -2 53 -7 3 -5 11
-5 18 1 13 11 105 26 246 41 91 10 137 23 280 76 75 28 150 66 150 75 0 4 20
12 45 19 24 7 50 19 56 26 6 8 21 14 33 14 12 0 38 13 58 30 20 16 46 34 59
39 26 9 162 117 219 172 19 19 42 34 50 34 8 0 15 7 15 15 1 8 6 24 13 35 9
16 12 -15 13 -155 3 -231 -2 -590 -8 -615 -2 -11 -4 -24 -3 -30 1 -5 3 -215 4
-465 1 -250 1 -382 -1 -294 -3 141 -6 163 -22 178 -18 16 -51 13 -51 -5 0 -5
-12 -10 -27 -10 -21 -1 -23 -3 -8 -6 47 -10 47 -17 1 -22 -28 -4 -51 -11 -52
-19 -1 -7 0 -8 3 -2 2 5 20 10 39 10 30 0 34 -3 34 -25 0 -14 -7 -28 -15 -31
-8 -4 -12 -10 -9 -15 3 -5 10 -6 16 -3 5 4 4 -4 -2 -17 -18 -34 -24 -38 -15
-9 6 20 5 23 -5 13 -15 -14 -23 -83 -10 -83 5 0 11 4 15 10 3 5 12 7 20 3 9
-3 15 1 15 11 0 10 6 13 15 10 10 -4 15 0 15 14 0 12 3 23 8 25 4 3 8 -30 8
-74 2 -71 0 -79 -17 -79 -11 0 -19 5 -19 11 0 8 -4 8 -14 -1 -8 -6 -12 -18 -9
-26 3 -8 2 -22 -2 -31 -13 -30 -15 -53 -5 -53 6 0 10 5 10 10 0 6 4 10 9 10
17 0 8 -47 -11 -59 -11 -7 -22 -10 -25 -7 -3 3 -12 -2 -20 -10 -12 -11 -12
-18 -3 -29 9 -10 8 -19 -5 -39 -10 -14 -22 -26 -28 -26 -6 0 0 11 13 26 20 21
22 27 10 34 -19 12 -54 -38 -39 -56 14 -17 -11 -56 -33 -51 -9 3 -19 -2 -22
-10 -3 -8 -2 -12 2 -9 5 3 9 -13 10 -35 1 -23 5 -46 9 -51 3 -7 1 -8 -5 -4 -6
4 -18 -6 -26 -23 -11 -21 -21 -28 -34 -24 -14 3 -27 -8 -51 -44 -18 -26 -31
-39 -29 -29 5 32 -17 28 -31 -6 -25 -59 -30 -99 -13 -119 8 -9 22 -15 30 -12
11 5 13 1 7 -16 -4 -12 -2 -27 3 -34 7 -8 2 -28 -14 -61 -13 -28 -24 -56 -24
-63 0 -8 -5 -11 -11 -7 -6 3 -8 17 -4 33 6 23 5 24 -8 11 -18 -19 -30 -80 -16
-80 6 0 7 -5 4 -11 -4 -6 2 -13 14 -16 11 -3 18 -9 15 -14 -3 -5 -1 -9 4 -9
12 0 26 86 17 100 -8 13 12 40 29 40 7 0 8 -3 1 -8 -6 -4 -8 -20 -4 -37 4 -16
7 -25 8 -19 0 6 15 25 31 42 26 28 30 29 30 12 0 -23 6 -25 25 -7 8 9 10 19 4
28 -15 25 -10 51 16 71 14 11 25 25 25 31 1 18 48 49 62 41 7 -4 8 -3 4 5 -9
14 41 64 55 55 5 -3 17 0 26 8 14 11 16 11 8 -1 -12 -21 -13 -65 -1 -73 5 -4
-5 -20 -25 -39 -34 -32 -34 -32 -7 -27 25 5 26 3 17 -20 -6 -14 -21 -37 -35
-50 -13 -14 -23 -27 -21 -29 7 -6 37 9 37 18 0 5 8 9 17 9 13 0 11 -6 -10 -28
-15 -16 -24 -31 -21 -35 12 -12 -26 -20 -40 -8 -10 9 -23 1 -59 -34 -26 -25
-49 -45 -53 -45 -6 0 32 48 77 98 33 37 16 49 -19 12 -18 -18 -35 -30 -39 -27
-3 4 -2 7 4 7 6 0 13 9 16 20 7 29 -6 25 -26 -7 -35 -59 -34 -58 -51 -44 -9 8
-16 9 -16 5 0 -5 9 -15 20 -22 15 -9 19 -19 14 -37 -5 -20 -2 -25 12 -25 11 0
15 -4 9 -8 -15 -10 -37 -53 -31 -59 2 -3 -6 -15 -19 -27 -24 -22 -42 -76 -26
-76 6 0 7 -16 4 -36 -5 -29 -3 -36 8 -32 8 2 15 15 17 27 3 17 7 20 17 11 9
-8 17 -4 29 16 24 36 56 73 93 108 18 17 44 47 59 66 l26 35 -6 -29 c-7 -30
-28 -57 -78 -105 -31 -28 -39 -54 -9 -27 11 10 28 16 38 14 31 -6 23 -45 -18
-88 -44 -45 -46 -50 -21 -50 10 0 26 13 35 30 10 16 25 30 33 30 16 0 19 -16
4 -25 -20 -13 -9 -25 18 -20 26 5 26 5 4 -5 -13 -5 -28 -8 -33 -5 -12 8 -49
-32 -49 -52 0 -13 5 -11 18 10 14 23 40 40 30 20 -24 -50 -33 -62 -51 -67 -12
-3 -25 0 -29 7 -5 8 -8 7 -8 -5 0 -9 6 -18 13 -21 9 -3 9 -11 1 -35 -8 -21 -9
-33 -1 -41 14 -14 19 -48 8 -55 -15 -10 -50 24 -44 42 6 15 5 15 -10 3 -21
-17 -21 -12 -2 25 10 20 11 32 4 40 -8 10 -2 26 21 59 18 26 29 49 25 53 -4 4
-12 -1 -19 -11 -6 -10 -23 -32 -37 -48 -24 -27 -27 -28 -32 -10 -3 13 -1 18 8
15 7 -3 15 3 19 13 3 10 9 23 12 30 3 7 -9 -2 -28 -19 -18 -17 -32 -37 -30
-44 2 -8 -1 -14 -6 -14 -4 0 -16 -17 -26 -37 -14 -29 -20 -34 -27 -22 -7 9 -9
-4 -8 -43 2 -35 -2 -63 -10 -72 -15 -18 -7 -111 14 -163 7 -17 18 -56 25 -87
12 -58 80 -228 103 -255 7 -9 22 -34 32 -56 11 -22 54 -75 95 -117 73 -75 77
-78 122 -78 l46 0 80 108 c94 126 127 188 158 297 12 44 38 125 58 180 19 55
40 129 46 165 6 36 16 79 20 95 15 49 21 139 11 154 -8 12 -12 12 -25 2 -14
-12 -16 -10 -16 12 0 30 -21 40 -55 27 -20 -8 -24 -15 -20 -33 4 -15 -1 -31
-16 -47 l-22 -25 7 28 c4 16 2 27 -4 27 -5 0 -10 5 -10 10 0 6 7 10 15 10 8 0
15 5 15 10 0 6 -5 10 -12 10 -7 0 -23 12 -35 27 -23 26 -31 49 -14 39 5 -3 3
15 -5 42 -8 26 -17 67 -19 92 -3 25 -6 50 -6 55 -1 6 2 23 6 39 6 21 5 27 -4
22 -6 -4 -9 -11 -6 -16 3 -5 1 -11 -4 -14 -5 -4 -9 14 -9 39 1 44 2 45 20 28
18 -16 18 -16 4 13 -17 32 -6 44 21 22 14 -11 15 -11 6 7 -6 11 -18 38 -28 60
-32 74 -38 84 -47 79 -4 -3 -8 0 -8 5 0 6 3 11 8 11 13 -1 42 -27 42 -39 0 -6
5 -11 10 -11 6 0 10 7 10 16 0 8 5 12 11 9 6 -4 8 -13 5 -21 -3 -8 -1 -14 4
-14 13 0 13 47 0 55 -6 4 -8 10 -5 15 3 5 0 14 -7 22 -7 7 -14 27 -15 43 -2
22 0 26 7 15 5 -8 10 -24 10 -35 0 -17 2 -18 11 -5 9 13 10 13 6 -2 -4 -11 2
-18 19 -22 17 -5 24 -13 24 -31 0 -32 27 -33 33 -2 2 12 3 5 0 -16 -2 -25 0
-36 7 -32 6 3 8 10 6 14 -3 4 -1 13 4 20 6 10 10 8 15 -10 4 -13 16 -36 26
-51 21 -29 25 -58 8 -58 -5 0 -7 5 -4 10 3 6 1 10 -5 10 -7 0 -10 7 -7 15 8
19 -11 31 -26 16 -8 -8 -8 -11 1 -11 7 0 11 -3 10 -8 -1 -4 2 -19 7 -35 6 -22
10 -25 21 -16 10 8 15 5 20 -18 3 -15 10 -44 14 -63 5 -19 9 -73 10 -119 1
-95 12 -127 21 -66 10 66 9 760 -2 775 -6 10 -9 -2 -11 -40 -1 -30 -3 -64 -4
-75 -1 -11 -3 -56 -4 -100 -1 -44 -4 -73 -7 -65 -6 14 -14 24 -72 84 -14 14
-29 22 -34 19 -6 -3 -7 -1 -3 5 4 7 -3 16 -17 21 -14 6 -31 19 -39 30 -8 11
-26 25 -41 32 -15 7 -27 18 -27 25 0 7 -2 18 -5 26 -8 21 9 38 32 32 12 -3 24
-13 27 -21 3 -8 1 -11 -4 -8 -6 3 -10 0 -10 -8 0 -20 43 -57 66 -56 17 0 17 1
-3 11 -24 11 -39 38 -22 38 6 0 23 -9 37 -21 25 -19 32 -34 35 -71 1 -12 5
-14 19 -7 9 5 20 13 23 19 9 14 -21 55 -53 71 -39 20 -86 59 -70 59 10 0 9 3
-2 10 -9 6 -17 5 -21 -1 -4 -6 -15 1 -27 16 -12 15 -26 24 -31 21 -5 -4 -12
-2 -16 4 -3 6 1 13 10 16 12 5 13 9 4 20 -16 19 -3 30 16 14 13 -11 14 -10 10
2 -4 9 -16 20 -27 25 -12 5 -22 19 -23 30 -1 19 1 18 28 -8 30 -30 42 -35 51
-20 3 5 -3 11 -14 14 -11 3 -20 12 -20 21 0 9 -7 16 -15 16 -8 0 -15 5 -15 11
0 10 -65 42 -87 42 -7 0 -13 6 -13 13 0 13 24 13 36 1 10 -9 24 -9 24 1 0 12
-73 57 -87 54 -10 -2 -13 14 -12 65 1 47 3 60 9 43 l7 -25 8 27 c4 16 5 35 1
43 -3 8 -1 15 5 15 6 0 1 16 -11 37 -17 29 -18 38 -8 44 10 7 10 9 1 9 -8 0
-13 15 -13 40 0 23 5 40 11 40 6 0 28 -17 48 -38 20 -22 72 -64 116 -95 44
-31 87 -62 95 -69 19 -15 73 -95 83 -122 5 -14 11 -16 18 -9 28 28 -118 193
-214 242 -39 20 -26 25 18 7 53 -22 59 -20 31 12 -14 15 -48 36 -76 47 -27 11
-50 23 -50 27 0 4 -7 8 -15 8 -14 0 -35 29 -35 49 0 6 8 8 18 5 14 -5 14 -4 2
4 -8 6 -18 8 -22 6 -4 -3 -8 4 -8 15 0 14 5 19 15 15 8 -4 15 -10 15 -15 0 -5
7 -9 15 -9 22 0 18 28 -5 35 -32 10 -23 23 13 21 21 -1 34 3 34 11 0 7 -8 13
-18 13 -30 0 -49 11 -49 30 0 13 6 16 24 13 31 -6 43 13 13 21 -13 3 -23 14
-24 25 -2 23 -42 67 -45 49 -1 -7 -4 25 -7 72 -3 47 -4 105 -1 130 3 25 3 61
-1 80 -4 19 -3 58 1 88 5 31 5 63 0 77 -5 13 -9 160 -9 326 0 257 3 309 16
337 9 19 22 36 30 39 7 3 13 12 13 20 0 9 8 23 18 32 22 20 73 100 103 163 12
26 26 45 31 42 4 -3 8 4 8 15 0 12 9 38 20 58 11 21 20 45 20 53 0 8 6 27 14
41 7 14 16 47 20 73 4 25 11 46 16 46 8 0 14 20 26 85 13 75 26 120 44 155 22
42 26 80 10 80 -18 0 -4 169 15 190 25 27 19 253 -7 293 -10 14 -18 39 -18 55
0 15 -18 82 -40 147 -22 66 -49 147 -59 180 -23 77 -85 210 -115 249 -13 17
-35 54 -49 81 -24 47 -281 325 -300 325 -10 0 -69 43 -119 86 -20 18 -53 37
-73 43 -20 5 -71 30 -113 54 -42 25 -93 48 -112 52 -19 4 -40 11 -46 16 -14
11 -113 46 -179 63 -27 7 -68 22 -91 34 -22 11 -78 28 -123 36 -86 17 -286 20
-332 6z m-110 -409 l25 -19 1 -478 c1 -565 0 -601 -24 -609 -17 -5 -724 -8
-860 -4 -70 3 -75 2 -76 -19 -1 -11 2 -19 7 -16 4 3 8 -7 8 -21 0 -14 -4 -24
-8 -21 -5 3 -7 -14 -6 -37 3 -50 22 -130 23 -102 1 17 3 17 11 5 5 -8 10 -26
10 -40 -1 -24 -1 -24 -15 -6 -9 12 -15 15 -15 7 0 -8 -6 -11 -15 -7 -8 3 -15
0 -15 -7 -1 -7 -8 2 -17 18 -11 20 -18 61 -21 121 -3 84 -2 94 18 112 l22 20
-83 8 c-46 4 -87 7 -91 6 -9 -2 -10 5 -10 70 0 84 32 180 113 343 79 157 108
199 238 340 31 33 107 103 146 133 34 26 154 97 193 114 134 57 306 105 387
107 17 0 41 -8 54 -18z m656 -46 c42 -14 92 -37 109 -50 18 -14 37 -25 42 -25
5 0 34 -18 64 -40 30 -22 66 -45 80 -52 14 -7 30 -18 35 -25 6 -6 27 -23 48
-36 63 -43 108 -86 101 -99 -4 -6 -3 -8 3 -5 11 7 64 -49 117 -122 17 -23 33
-41 38 -41 4 0 8 -6 8 -12 -1 -16 61 -140 74 -149 5 -4 9 -20 10 -37 0 -17 4
-28 7 -27 6 4 66 -138 75 -177 15 -66 16 -108 3 -112 -8 -2 -113 -7 -234 -10
-121 -3 -310 -9 -420 -12 -236 -8 -308 -2 -340 30 l-22 22 1 491 c1 557 -3
529 77 520 26 -3 82 -17 124 -32z m-705 -1110 c4 2 8 -10 8 -28 1 -17 3 -54 6
-80 4 -36 2 -46 -7 -41 -9 5 -9 4 1 -7 20 -22 15 -42 -7 -29 -20 10 -41 -4
-27 -17 3 -4 6 -1 6 6 0 7 5 9 10 6 8 -5 7 -11 0 -21 -18 -21 -7 -40 12 -21
14 15 16 14 20 -12 2 -16 1 -37 -3 -47 -6 -17 -7 -16 -11 6 -5 24 -5 24 -7 -4
-1 -18 7 -36 21 -48 22 -19 23 -27 26 -219 4 -177 -7 -377 -24 -449 -3 -14
-10 -101 -14 -195 -5 -93 -12 -191 -16 -217 -6 -46 -7 -48 -39 -48 -17 0 -45
4 -61 9 -16 5 -49 14 -74 21 -157 43 -304 109 -365 163 -18 15 -52 41 -76 56
-24 16 -58 44 -76 62 -78 84 -113 127 -113 141 0 9 -7 21 -15 28 -8 7 -15 16
-15 21 0 4 -12 25 -26 46 -23 34 -38 64 -66 133 -6 14 -18 41 -28 60 -10 19
-23 53 -30 75 -6 22 -20 59 -31 83 -11 24 -17 47 -14 52 4 6 1 10 -5 10 -7 0
-10 27 -8 82 3 75 5 84 27 94 16 9 156 12 495 13 259 1 480 1 491 1 17 1 18 2
4 10 -12 7 -15 20 -12 47 2 20 6 39 8 41 2 2 -1 17 -5 34 -8 25 -7 29 7 24 13
-5 14 -4 4 8 -20 24 -21 127 -3 156 14 21 17 22 20 7 2 -9 7 -15 12 -12z
m1465 -302 l47 -6 -6 -91 c-8 -115 -65 -334 -93 -357 -7 -6 -17 -28 -23 -48
-9 -36 -95 -173 -111 -179 -5 -2 -9 -10 -9 -18 0 -22 -94 -109 -200 -187 -52
-38 -106 -77 -120 -88 -14 -10 -44 -27 -68 -38 -24 -11 -55 -29 -70 -39 -22
-16 -52 -27 -92 -35 -3 0 -11 -7 -18 -14 -7 -7 -26 -13 -41 -13 -15 0 -32 -5
-38 -11 -6 -6 -42 -14 -80 -16 -64 -5 -69 -4 -81 18 -19 38 -22 1056 -3 1092
l14 27 371 3 c204 1 416 3 472 5 56 1 123 -1 149 -5z m-2565 -33 c0 -5 -4 -10
-10 -10 -5 0 -10 5 -10 10 0 6 5 10 10 10 6 0 10 -4 10 -10z m-144 -69 c-5 -8
-57 -20 -115 -27 -30 -4 -19 8 22 22 39 13 100 17 93 5z m119 -81 c3 -5 1 -10
-4 -10 -6 0 -11 5 -11 10 0 6 2 10 4 10 3 0 8 -4 11 -10z m-75 -24 c0 -3 -4
-8 -10 -11 -5 -3 -10 -1 -10 4 0 6 5 11 10 11 6 0 10 -2 10 -4z m818 -1026
c15 -1 15 -2 0 -11 -10 -5 -18 -19 -18 -29 0 -13 -7 -20 -19 -20 -27 0 -32 11
-21 46 4 16 9 21 9 12 1 -9 6 -20 13 -24 8 -5 9 -2 5 10 -4 10 -4 23 0 29 5 8
8 8 11 -1 2 -7 11 -12 20 -12z m1949 -922 c-3 -7 -5 -2 -5 12 0 14 2 19 5 13
2 -7 2 -19 0 -25z m-20 -130 c-2 -13 -4 -5 -4 17 -1 22 1 32 4 23 2 -10 2 -28
0 -40z m-70 -104 c-3 -3 -12 -4 -19 -1 -8 3 -5 6 6 6 11 1 17 -2 13 -5z
m-2397 -363 c0 -6 -4 -13 -10 -16 -5 -3 -10 1 -10 9 0 9 5 16 10 16 6 0 10 -4
10 -9z m-140 -46 c-28 -16 -60 -20 -44 -6 8 9 36 18 59 19 6 1 -1 -5 -15 -13z
m-90 -110 c-7 -8 -17 -15 -22 -15 -6 0 -5 7 2 15 7 8 17 15 22 15 6 0 5 -7 -2
-15z m2520 -54 c0 -5 -9 -12 -19 -16 -11 -3 -22 -12 -25 -20 -3 -8 -13 -15
-22 -15 -12 0 -8 6 12 22 16 13 31 26 32 30 5 11 22 10 22 -1z m-2150 -86 c0
-7 6 -15 13 -18 6 -2 8 -8 4 -13 -5 -5 -17 1 -28 15 -23 28 -25 42 -4 35 8 -4
15 -12 15 -19z m1991 -134 c-31 -34 -35 -34 -18 2 6 15 19 27 28 27 13 0 11
-6 -10 -29z m-1880 -43 c28 -34 23 -47 -6 -16 -14 15 -25 30 -25 33 0 11 13 4
31 -17z m1784 -88 c1 -15 -1 -17 -11 -9 -7 6 -10 17 -7 25 7 18 16 10 18 -16z
m719 11 c3 -5 -1 -11 -9 -15 -9 -3 -15 0 -15 9 0 16 16 20 24 6z m-484 -268
c0 -10 -4 -14 -8 -8 -4 6 -11 13 -16 18 -5 4 -2 7 7 7 10 0 17 -8 17 -17z
m-2155 -52 c-3 -6 -11 -11 -17 -11 -6 0 -6 6 2 15 14 17 26 13 15 -4z m90 -21
c26 -29 14 -33 -14 -4 -13 13 -19 24 -14 24 6 0 18 -9 28 -20z m-157 -220 c-7
-10 -14 -17 -17 -15 -4 4 18 35 25 35 2 0 -1 -9 -8 -20z m48 -49 c7 -13 16
-26 21 -30 5 -3 25 -28 45 -56 32 -44 35 -56 32 -100 -3 -36 -10 -55 -28 -72
-20 -19 -25 -20 -30 -7 -9 23 -7 54 2 54 12 0 12 29 0 68 -5 17 -16 32 -24 32
-8 0 -14 5 -14 12 0 6 -7 20 -17 30 -14 15 -14 18 -1 18 8 0 21 -11 28 -25 18
-33 32 -32 17 0 -7 14 -22 28 -34 31 -17 5 -23 14 -23 34 0 16 -6 31 -12 34
-7 3 -4 5 7 3 11 -1 25 -13 31 -26z"/>
<path d="M4680 6401 c0 -6 4 -13 10 -16 6 -3 7 1 4 9 -7 18 -14 21 -14 7z"/>
<path d="M3380 5757 c0 -9 4 -18 9 -21 5 -4 8 1 7 9 -3 21 -16 31 -16 12z"/>
<path d="M3385 5685 c-1 -25 3 -31 14 -27 9 3 10 7 4 9 -6 2 -9 12 -6 22 3 10
1 21 -4 24 -4 3 -8 -10 -8 -28z"/>
<path d="M2640 1430 c0 -5 5 -10 11 -10 5 0 7 5 4 10 -3 6 -8 10 -11 10 -2 0
-4 -4 -4 -10z"/>
<path d="M1967 5740 c5 -20 33 -29 33 -10 0 6 -5 10 -11 10 -5 0 -7 5 -4 10 3
6 0 10 -8 10 -10 0 -13 -7 -10 -20z"/>
<path d="M2027 5511 c-4 -22 -3 -23 7 -9 6 9 23 18 36 20 23 3 22 4 -7 9 -28
5 -32 2 -36 -20z"/>
<path d="M2510 4531 c0 -6 5 -13 10 -16 6 -3 10 1 10 9 0 9 -4 16 -10 16 -5 0
-10 -4 -10 -9z"/>
<path d="M2462 4410 c0 -48 1 -51 7 -20 4 20 11 42 16 49 5 9 4 12 -3 7 -5 -3
-13 0 -15 6 -3 7 -5 -12 -5 -42z"/>
<path d="M4870 4346 c0 -8 5 -18 10 -21 6 -3 10 3 10 14 0 12 -4 21 -10 21 -5
0 -10 -6 -10 -14z"/>
<path d="M2462 4280 c0 -14 2 -19 5 -12 2 6 2 18 0 25 -3 6 -5 1 -5 -13z"/>
<path d="M3620 3778 c0 -92 -7 -389 -11 -498 0 -14 -1 -108 0 -209 1 -192 -6
-227 -39 -216 -15 5 -19 0 -22 -27 -2 -20 -8 -32 -15 -31 -7 2 -13 -1 -13 -7
0 -5 -6 -7 -14 -4 -8 3 -17 0 -22 -7 -4 -8 -3 -10 4 -5 19 12 35 -3 21 -20 -8
-9 -8 -14 -1 -14 6 0 15 6 19 13 11 17 63 39 63 27 0 -6 -4 -10 -10 -10 -5 0
-10 -7 -10 -15 0 -8 -3 -14 -7 -13 -12 3 -53 -21 -53 -32 0 -5 13 -5 30 0 23
7 30 5 30 -6 0 -8 -7 -14 -15 -14 -8 0 -19 -9 -25 -20 -6 -11 -15 -18 -21 -15
-5 4 -24 -8 -42 -26 -17 -18 -34 -31 -36 -28 -2 2 -5 -4 -7 -13 -3 -23 12 -33
23 -15 4 7 17 17 28 21 16 6 17 9 5 16 -13 8 -13 10 1 10 9 0 22 7 29 15 7 8
19 15 27 15 8 0 22 8 31 17 16 16 17 15 20 -3 7 -46 -15 -71 -92 -109 -42 -20
-79 -41 -82 -46 -3 -5 -10 -7 -15 -4 -5 3 -6 -1 -3 -9 4 -11 0 -16 -10 -16 -9
0 -16 -4 -16 -10 0 -12 27 -13 34 -1 7 11 46 22 46 12 0 -3 -16 -15 -35 -25
-42 -23 -135 -120 -179 -189 -10 -15 -25 -27 -32 -27 -8 0 -14 -9 -14 -19 0
-22 27 -22 41 0 5 8 9 10 9 4 0 -10 15 14 46 75 22 42 23 43 99 100 33 25 62
47 65 51 3 3 22 15 43 28 20 12 37 27 37 32 0 5 7 9 15 9 8 0 15 7 15 15 0 8
7 15 15 15 8 0 15 -8 15 -17 0 -15 2 -16 10 -3 8 12 10 11 10 -7 0 -12 -6 -24
-12 -26 -10 -4 -9 -8 2 -16 10 -7 11 -11 3 -11 -8 0 -13 -14 -14 -32 -1 -31
-1 -32 -9 -8 l-8 25 -1 -27 c-1 -14 5 -28 12 -31 9 -3 8 -8 -3 -22 -11 -14
-12 -19 -2 -22 6 -3 12 -17 12 -31 0 -19 -3 -23 -9 -14 -7 11 -9 11 -14 -2 -3
-8 -2 -18 2 -21 12 -7 28 15 33 45 3 14 5 -4 6 -39 0 -36 -3 -59 -7 -52 -6 10
-10 9 -14 -3 -4 -9 -10 -15 -15 -14 -4 2 -22 -9 -40 -24 -22 -19 -30 -32 -25
-44 5 -14 3 -16 -12 -10 -11 4 -16 4 -13 1 9 -10 -63 -78 -86 -82 -26 -5 -26
-5 -10 -33 15 -25 15 -25 10 -2 -3 17 -1 22 9 19 7 -3 18 0 24 6 6 6 11 7 11
2 0 -4 8 2 19 14 16 18 20 19 25 6 3 -9 2 -14 -3 -10 -12 7 -51 -42 -51 -64 0
-12 2 -13 8 -4 7 10 12 10 27 -1 18 -13 17 -14 -12 -20 -17 -4 -34 -15 -38
-24 -5 -14 -7 -14 -15 -2 -8 13 -10 12 -10 -2 0 -22 -43 -68 -64 -68 -9 0 -16
-4 -16 -10 0 -5 -6 -10 -13 -10 -8 0 -21 -8 -30 -18 -19 -21 -19 -92 1 -92 6
0 11 6 10 12 -2 7 7 14 20 16 33 5 27 -7 -31 -68 l-52 -55 -6 75 c-5 58 -3 80
8 99 14 22 14 24 -1 18 -14 -5 -16 2 -16 48 0 32 -4 55 -11 55 -11 0 -11 -751
1 -805 7 -30 7 -30 13 -5 3 14 8 70 11 125 6 94 26 208 40 222 14 15 15 -7 1
-39 -14 -34 -14 -36 5 -31 11 3 20 14 20 25 0 11 5 28 10 39 7 13 7 19 0 19
-12 0 -14 43 -2 54 4 4 7 13 7 18 0 6 5 13 12 15 9 3 9 -5 0 -32 -8 -28 -8
-38 3 -48 10 -9 11 -9 6 0 -4 8 4 24 20 40 l27 27 10 -22 c13 -28 37 -29 37
-1 0 11 4 18 10 14 5 -3 6 -13 3 -23 -4 -13 0 -11 16 6 26 26 52 30 28 4 -10
-10 -17 -26 -17 -35 0 -9 -4 -17 -10 -17 -5 0 -10 -7 -10 -15 0 -9 -7 -29 -15
-45 -15 -29 -15 -30 5 -30 17 0 20 -4 15 -20 -5 -15 -3 -18 9 -14 11 4 13 0 9
-15 -3 -12 -10 -18 -17 -14 -6 3 -8 3 -4 -2 4 -4 3 -14 -4 -22 -8 -11 -7 -12
6 -7 17 7 24 -20 6 -31 -5 -3 -7 -12 -3 -20 3 -10 -1 -15 -12 -15 -9 0 -13 -5
-10 -10 4 -6 11 -8 16 -5 5 4 9 -1 9 -9 0 -8 -5 -18 -11 -21 -6 -4 -8 -14 -5
-22 3 -8 -1 -21 -9 -29 -14 -15 -10 -42 9 -57 7 -5 4 -7 -7 -3 -15 5 -17 2
-12 -14 5 -15 2 -20 -10 -20 -11 0 -15 -5 -11 -15 3 -8 1 -15 -4 -15 -6 0 -10
-11 -10 -25 0 -14 -5 -25 -12 -25 -9 0 -9 -3 0 -12 7 -7 12 -16 12 -22 0 -5
-11 4 -25 20 -17 20 -21 30 -13 35 7 4 17 5 23 3 5 -3 -3 6 -20 20 -16 14 -38
26 -47 26 -23 0 -41 -33 -26 -48 7 -7 8 -12 2 -12 -5 0 -16 6 -23 13 -10 10
-15 8 -26 -7 -8 -10 -12 -22 -10 -27 3 -4 8 -29 11 -56 3 -26 9 -61 14 -78 5
-16 16 -64 25 -105 8 -41 26 -104 40 -140 13 -36 36 -105 50 -155 37 -123 86
-223 148 -303 28 -37 54 -69 57 -72 3 -3 13 -17 23 -32 15 -24 24 -28 63 -28
43 0 50 4 116 67 71 69 163 214 195 306 8 23 18 46 22 52 9 11 20 53 28 100 2
17 11 49 18 71 23 67 29 142 15 159 -9 10 -11 35 -7 75 3 33 1 62 -3 65 -5 3
-10 -5 -12 -17 -3 -19 -6 -16 -23 20 -16 35 -23 42 -40 38 -16 -4 -28 3 -44
24 -12 17 -26 30 -31 30 -11 0 9 -51 25 -62 7 -5 7 -11 0 -15 -5 -5 -10 -28
-10 -52 0 -36 -5 -46 -28 -63 l-29 -21 3 29 c2 16 9 36 16 45 10 12 11 23 4
42 -7 17 -7 28 -1 32 13 8 13 25 -1 25 -5 0 -8 -4 -5 -9 4 -5 -5 -4 -19 2 -14
7 -27 19 -30 28 -3 9 -19 31 -36 49 -17 17 -28 34 -25 38 4 3 13 -3 20 -14 19
-25 31 -12 16 16 -14 27 -2 42 14 16 30 -50 44 -61 58 -48 11 11 10 16 -7 27
-62 43 -85 89 -54 108 26 16 24 44 -7 72 -15 14 -23 25 -19 25 4 0 2 7 -5 15
-7 8 -9 15 -5 15 9 0 96 -91 148 -154 21 -25 45 -46 53 -46 8 0 19 -11 24 -25
15 -39 29 -30 20 11 -5 23 -5 43 2 54 8 13 4 26 -21 60 -17 24 -31 48 -31 53
0 6 -7 19 -17 29 -14 16 -15 18 0 18 9 0 26 -18 38 -40 13 -22 26 -40 31 -40
15 0 8 19 -18 47 -18 19 -23 34 -19 50 3 13 1 23 -5 23 -6 0 -8 -6 -4 -12 4
-8 3 -10 -2 -5 -5 5 -9 23 -9 40 0 26 -4 32 -21 31 -14 0 -20 5 -17 15 4 20
-13 48 -24 38 -4 -5 -1 -12 7 -17 9 -6 10 -10 3 -10 -6 0 -18 7 -27 15 -8 8
-20 15 -27 15 -10 0 -10 -3 -2 -11 15 -15 5 -39 -14 -39 -9 0 -13 6 -9 15 3
10 -1 15 -13 15 -11 0 -22 -6 -24 -12 -3 -8 -6 -5 -6 5 -1 10 -5 16 -10 13 -4
-3 -13 6 -19 19 -8 16 -8 25 -1 25 5 0 12 -7 15 -15 7 -17 34 -21 34 -5 0 6
-4 10 -10 10 -5 0 -10 5 -10 10 0 6 -9 20 -20 32 -11 12 -20 27 -20 32 0 6 4
5 8 -2 5 -7 16 -10 26 -6 15 6 14 10 -13 35 -34 31 -39 42 -16 33 16 -7 21 11
6 20 -13 8 -2 44 16 50 9 4 12 1 7 -7 -5 -9 -4 -9 5 -1 18 17 135 -109 128
-137 -4 -17 -3 -18 9 -8 16 13 15 17 23 -83 2 -26 21 -22 21 5 1 20 2 21 14 5
7 -10 16 -15 19 -11 4 3 12 -7 18 -23 l12 -29 8 29 c4 16 5 34 2 40 -4 6 0 5
9 -2 10 -8 15 -22 11 -35 -8 -33 -4 -68 9 -84 9 -11 15 -10 34 8 25 23 29 58
11 97 -11 24 -30 31 -21 7 11 -27 -16 -16 -28 13 -7 15 -20 39 -31 55 -18 27
-18 27 3 27 17 0 19 3 10 19 -14 27 -13 32 8 29 13 -2 16 3 14 19 -2 13 4 33
12 44 14 20 13 25 -15 65 -16 23 -29 47 -29 53 0 19 16 12 30 -14 18 -33 24
-25 8 9 -8 19 -18 26 -29 23 -17 -5 -69 42 -69 62 0 5 -7 12 -16 15 -22 8 -26
8 -19 -3 3 -5 -9 -9 -26 -9 -28 1 -30 3 -24 27 15 57 17 83 5 76 -16 -10 -46
26 -42 48 2 10 1 30 -2 43 -5 19 -11 24 -26 19 -15 -5 -18 -3 -14 8 3 8 1 18
-5 22 -16 9 -13 25 4 25 8 0 15 -9 15 -20 0 -13 7 -20 20 -20 12 0 32 -11 45
-25 14 -13 25 -20 25 -15 0 5 -7 15 -15 24 -8 8 -15 17 -15 20 0 3 -16 29 -37
57 -30 42 -38 48 -45 35 -11 -20 -28 -12 -28 14 0 10 -8 21 -17 25 -17 6 -17
7 0 16 16 10 16 12 -8 31 -14 11 -23 23 -20 28 3 5 1 11 -5 15 -16 10 -12 -18
6 -44 16 -22 15 -23 -7 -19 -23 3 -24 7 -24 80 0 43 3 78 8 78 7 0 11 -19 10
-47 -1 -19 15 -15 20 5 3 12 5 10 6 -7 1 -17 5 -22 17 -17 10 4 26 -3 42 -19
14 -14 28 -23 31 -19 3 3 -2 11 -12 18 -9 7 -17 25 -17 40 0 16 -5 26 -15 26
-8 0 -19 10 -25 23 -10 21 -10 21 4 3 8 -10 20 -16 26 -14 6 2 2 12 -10 26
-18 19 -18 22 -4 22 13 0 14 3 4 15 -7 8 -17 12 -23 8 -6 -3 -7 -1 -3 5 4 7 2
12 -3 12 -6 0 -11 4 -11 10 0 5 5 9 11 7 6 -1 14 4 16 11 3 6 -2 12 -11 12
-10 0 -13 6 -10 15 4 8 1 15 -5 15 -6 0 -11 8 -11 18 0 13 2 14 9 3 6 -9 11
-10 15 -2 4 6 -6 19 -23 29 -38 21 -39 25 -32 87 l6 50 18 -41 c10 -22 17 -48
15 -57 -2 -9 1 -15 7 -14 5 1 9 8 7 15 -4 17 27 15 34 -2 5 -12 44 -31 44 -21
0 15 -47 85 -57 85 -7 0 -13 5 -13 11 0 14 42 0 56 -19 9 -13 12 -12 18 4 5
12 2 23 -8 30 -9 6 -16 16 -16 23 0 6 -10 12 -22 12 -20 1 -20 2 -4 6 18 5 18
6 -5 24 -19 15 -20 19 -7 19 9 0 20 -4 23 -10 13 -21 21 -8 20 33 -1 23 3 45
9 50 6 4 -4 5 -23 2 -26 -4 -39 -1 -56 15 -13 13 -25 17 -29 12 -9 -15 4 -43
17 -35 6 4 8 0 4 -10 -4 -10 -2 -16 5 -14 6 1 13 -4 15 -10 3 -7 -3 -13 -11
-13 -9 0 -19 6 -22 13 -2 7 -13 13 -24 14 -17 2 -19 -7 -22 -119 -2 -66 -1
-123 2 -127 3 -4 13 -10 23 -14 19 -7 23 -37 5 -37 -9 0 -8 -4 2 -10 11 -8 8
-9 -12 -4 l-27 6 -4 -158 c-1 -88 -3 21 -4 241 0 220 2 414 6 430 4 17 3 57
-1 90 -4 33 -8 214 -8 403 -1 210 -5 342 -10 342 -6 0 -10 -48 -10 -112z m-13
-1150 c-2 -13 -4 -3 -4 22 0 25 2 35 4 23 2 -13 2 -33 0 -45z m3 -68 c0 -5 -4
-10 -10 -10 -5 0 -10 5 -10 10 0 6 5 10 10 10 6 0 10 -4 10 -10z m-130 -60 c0
-5 -5 -10 -11 -10 -5 0 -7 5 -4 10 3 6 8 10 11 10 2 0 4 -4 4 -10z m90 -314
c0 -2 -11 -11 -25 -20 -21 -14 -25 -14 -25 -2 0 8 10 17 23 19 12 2 23 5 25 6
1 0 2 -1 2 -3z m160 -36 c0 -5 11 -10 24 -10 22 0 23 -2 13 -25 -11 -23 -13
-23 -24 -8 -7 9 -13 11 -13 5 0 -7 -4 -12 -9 -12 -5 0 -9 14 -9 30 1 17 5 30
10 30 4 0 8 -4 8 -10z m236 -362 c3 -12 10 -26 15 -32 28 -33 56 -84 44 -80
-7 3 -18 17 -24 32 -18 42 -64 88 -83 84 -10 -2 -18 0 -18 5 0 4 13 9 29 10
23 2 32 -3 37 -19z m-562 -195 c-9 -37 -9 -37 -34 -20 -18 12 -19 16 -5 27 8
7 15 9 15 4 0 -4 5 -3 12 4 17 17 19 15 12 -15z m666 -193 c0 -19 -18 -19 -23
-1 -3 14 -1 18 9 14 8 -3 14 -9 14 -13z m-210 -21 c0 -6 -4 -7 -10 -4 -5 3
-10 11 -10 16 0 6 5 7 10 4 6 -3 10 -11 10 -16z"/>
<path d="M3670 3804 c0 -8 5 -12 10 -9 6 4 8 11 5 16 -9 14 -15 11 -15 -7z"/>
<path d="M2466 3782 c-2 -4 -1 -14 5 -22 7 -12 9 -10 9 8 0 23 -5 28 -14 14z"/>
<path d="M4870 3730 c0 -23 -12 -30 -105 -61 -66 -21 -125 -61 -125 -84 0 -5
-23 -31 -50 -56 -31 -28 -48 -39 -45 -28 4 11 4 19 2 19 -6 0 -88 -85 -121
-126 -35 -43 -33 -67 2 -27 45 51 62 73 62 81 0 4 9 13 20 20 27 17 25 3 -4
-27 -27 -28 -61 -101 -48 -101 4 0 16 14 26 30 9 17 33 47 52 68 18 20 34 40
34 44 0 14 93 78 103 71 5 -3 7 -2 4 4 -6 9 70 50 86 45 4 -1 26 7 48 18 22
12 48 18 58 15 15 -4 20 1 24 27 2 18 0 39 -5 45 -6 7 -8 20 -4 28 3 8 1 15
-4 15 -6 0 -10 -9 -10 -20z"/>
<path d="M2466 3686 c4 -16 2 -26 -5 -26 -6 0 -11 -16 -11 -35 0 -25 6 -37 21
-46 17 -9 20 -8 14 2 -6 9 -3 10 11 5 10 -5 39 -15 64 -23 25 -9 57 -22 72
-29 14 -8 31 -14 37 -14 24 0 132 -106 184 -180 23 -33 32 -40 35 -28 2 10 -9
34 -24 53 -15 20 -25 38 -22 40 3 3 27 -23 53 -57 27 -33 51 -56 53 -50 2 7
-2 18 -10 26 -7 8 -24 31 -38 50 -14 20 -31 36 -38 36 -7 0 -15 8 -19 18 -8
23 -43 56 -51 48 -3 -4 6 -18 22 -32 15 -14 24 -29 21 -33 -4 -3 -20 9 -36 28
-21 26 -26 38 -18 48 8 9 8 13 1 13 -6 0 -12 -5 -14 -11 -6 -18 -45 7 -53 33
-9 29 -73 90 -87 82 -5 -3 -24 1 -41 9 -18 8 -49 22 -69 31 -26 10 -38 22 -38
35 0 11 -5 23 -10 26 -7 4 -9 -2 -4 -19z"/>
<path d="M5050 3649 c19 -12 46 -29 60 -38 39 -27 50 -33 50 -27 0 12 -48 49
-89 67 -57 25 -65 24 -21 -2z"/>
<path d="M2270 3594 c-48 -26 -98 -64 -83 -64 5 0 24 11 43 25 19 14 39 25 44
25 6 0 22 9 36 20 34 26 15 24 -40 -6z"/>
<path d="M4848 3595 c2 -14 8 -23 12 -20 10 6 1 45 -10 45 -4 0 -5 -11 -2 -25z"/>
<path d="M4810 3580 c0 -5 5 -10 11 -10 5 0 7 5 4 10 -3 6 -8 10 -11 10 -2 0
-4 -4 -4 -10z"/>
<path d="M5051 3566 c14 -13 79 -44 79 -38 0 10 -54 42 -71 42 -7 0 -10 -2 -8
-4z"/>
<path d="M2751 3524 c0 -11 3 -14 6 -6 3 7 2 16 -1 19 -3 4 -6 -2 -5 -13z"/>
<path d="M2254 3505 c-16 -13 -23 -24 -16 -25 6 0 12 4 12 9 0 5 12 13 27 18
15 5 22 12 17 16 -6 3 -23 -5 -40 -18z"/>
<path d="M4500 3520 c-9 -6 -10 -10 -3 -10 6 0 15 5 18 10 8 12 4 12 -15 0z"/>
<path d="M4817 3499 c-21 -17 -37 -35 -37 -40 0 -16 20 -10 37 11 10 11 23 20
30 20 7 0 13 9 13 20 0 26 0 26 -43 -11z"/>
<path d="M5263 3483 c41 -62 43 -73 11 -73 -19 0 -24 -4 -21 -17 3 -10 8 -31
12 -47 3 -16 17 -43 31 -59 13 -16 24 -34 23 -40 0 -8 -2 -8 -6 1 -2 6 -9 12
-14 12 -16 0 -10 -60 11 -101 12 -23 18 -48 15 -60 -4 -11 -2 -19 5 -19 8 0 9
-10 5 -30 -4 -16 -3 -30 2 -30 4 0 9 -17 10 -37 1 -20 5 -49 8 -62 6 -22 8
-23 16 -9 14 26 15 266 0 318 -7 25 -16 61 -21 80 -5 19 -14 55 -21 80 -7 25
-13 50 -14 55 -6 31 -19 55 -30 55 -7 0 -18 7 -25 15 -29 35 -27 11 3 -32z
m64 -135 c-3 -8 -6 -5 -6 6 -1 11 2 17 5 13 3 -3 4 -12 1 -19z"/>
<path d="M4868 3495 c-33 -28 -36 -39 -9 -30 16 5 19 -1 23 -32 3 -21 3 -46 0
-56 -4 -17 -5 -17 -18 0 -13 17 -13 17 -14 -3 0 -12 -11 -30 -25 -40 -14 -10
-25 -22 -25 -26 0 -11 -38 -48 -49 -48 -10 0 -9 -25 1 -36 4 -3 19 3 35 13 60
42 62 29 3 -27 -9 -8 -21 -28 -28 -43 -11 -26 -11 -27 8 -17 11 6 20 15 20 20
0 6 12 10 26 10 14 0 23 4 19 10 -3 6 -1 10 5 10 6 0 16 14 21 30 16 44 24 37
23 -22 -1 -44 -5 -55 -29 -73 -15 -13 -25 -29 -23 -36 3 -9 10 -7 26 9 12 12
27 22 32 22 11 0 12 4 11 85 0 113 1 107 -21 100 -15 -5 -19 -3 -14 10 4 9 12
14 19 11 10 -4 13 17 13 90 0 52 0 94 -1 94 -1 0 -14 -12 -29 -25z"/>
<path d="M2575 3490 c21 -24 26 -25 19 -6 -3 8 -13 17 -22 21 -13 5 -13 2 3
-15z"/>
<path d="M4770 3495 c-7 -9 -11 -18 -8 -20 3 -3 11 1 18 10 7 9 11 18 8 20 -3
3 -11 -1 -18 -10z"/>
<path d="M4460 3487 c-27 -22 -80 -87 -80 -99 0 -6 20 10 45 35 25 26 45 51
45 56 0 5 6 12 13 14 6 3 8 6 2 6 -5 0 -17 -5 -25 -12z"/>
<path d="M2463 3483 c-8 -3 -13 -25 -13 -59 0 -34 4 -53 10 -49 6 3 10 15 10
26 0 28 25 23 59 -10 17 -17 33 -26 36 -22 2 5 -7 17 -21 27 -15 11 -32 25
-39 32 -8 6 -18 12 -23 12 -12 0 -23 26 -15 34 11 10 23 7 23 -6 0 -7 15 -25
34 -40 25 -20 36 -24 45 -15 16 16 14 32 -6 48 -15 13 -15 12 -4 -9 20 -38 4
-37 -35 2 -37 37 -40 38 -61 29z"/>
<path d="M2830 3481 c0 -13 28 -33 33 -23 3 4 -3 13 -14 20 -10 7 -19 8 -19 3z"/>
<path d="M2072 3451 c-17 -17 -32 -37 -32 -46 0 -9 -10 -35 -21 -57 -14 -28
-18 -43 -10 -46 7 -2 6 -12 -4 -32 -8 -16 -15 -39 -15 -52 0 -13 -7 -35 -15
-51 -11 -22 -13 -56 -8 -167 4 -92 10 -139 17 -137 13 4 35 121 26 139 -4 7
-1 31 6 53 7 22 13 36 14 30 0 -5 7 6 14 26 15 44 18 99 5 99 -5 0 -9 -9 -9
-20 0 -11 -4 -20 -9 -20 -15 0 10 62 36 90 19 21 25 43 23 88 -1 4 -9 6 -20 4
-14 -2 -18 2 -15 15 6 31 37 84 51 90 15 5 19 23 6 23 -4 0 -22 -13 -40 -29z"/>
<path d="M2196 3453 c-6 -14 -5 -15 5 -6 7 7 10 15 7 18 -3 3 -9 -2 -12 -12z"/>
<path d="M4793 3433 c-16 -16 -33 -41 -36 -58 -3 -16 -4 -24 -1 -17 3 6 10 9
15 6 6 -3 5 -11 -2 -20 -14 -17 -3 -18 40 -3 31 11 40 24 21 31 -5 2 1 16 15
32 28 33 32 51 10 42 -8 -3 -15 -1 -15 4 0 17 -15 11 -47 -17z"/>
<path d="M5230 3441 c0 -6 4 -13 10 -16 6 -3 7 1 4 9 -7 18 -14 21 -14 7z"/>
<path d="M2880 3432 c0 -5 18 -28 40 -53 22 -25 40 -37 40 -29 0 8 -16 32 -36
53 -36 38 -44 43 -44 29z"/>
<path d="M2485 3390 c-4 -7 4 -23 19 -39 28 -30 32 -46 14 -57 -7 -5 -9 -2 -6
7 4 9 -7 23 -28 37 l-34 22 0 -35 c0 -23 5 -35 14 -35 8 0 16 -7 20 -15 7 -18
-5 -20 -22 -3 -9 9 -12 -4 -12 -60 0 -73 19 -105 21 -34 1 36 1 37 11 10 5
-16 17 -28 25 -28 12 0 14 -8 9 -37 -6 -37 -6 -37 6 -10 l13 27 29 -25 c16
-14 31 -25 32 -25 11 0 -26 59 -51 81 -38 35 -26 48 15 19 25 -18 34 -20 40
-10 10 16 1 42 -12 34 -5 -3 -12 3 -15 15 -3 12 -11 21 -18 21 -7 0 -15 9 -18
21 -5 18 -2 19 21 14 26 -5 27 -4 25 32 -2 51 -2 50 -13 33 -8 -12 -15 -9 -43
18 -24 23 -37 30 -42 22z"/>
<path d="M2591 3314 c0 -11 3 -14 6 -6 3 7 2 16 -1 19 -3 4 -6 -2 -5 -13z"/>
<path d="M3680 3288 c0 -9 5 -20 10 -23 13 -8 13 5 0 25 -8 13 -10 13 -10 -2z"/>
<path d="M4524 3276 c-3 -8 -4 -22 -2 -31 2 -12 7 -7 15 14 6 18 7 31 2 31 -5
0 -12 -6 -15 -14z"/>
<path d="M2296 3225 c4 -8 1 -15 -5 -15 -6 0 -11 -5 -11 -11 0 -8 5 -8 15 1
17 14 20 40 5 40 -5 0 -7 -7 -4 -15z"/>
<path d="M2810 3228 c0 -24 11 -48 22 -48 5 0 6 10 3 23 -10 30 -25 46 -25 25z"/>
<path d="M5207 3206 c10 -14 26 -27 36 -30 10 -2 21 -14 24 -25 3 -12 13 -21
22 -21 10 0 -2 18 -34 50 -53 53 -78 66 -48 26z"/>
<path d="M3676 3190 c-17 -66 -14 -90 11 -90 12 0 42 -9 65 -19 24 -11 54 -22
68 -25 14 -3 34 -14 45 -24 11 -10 26 -17 32 -15 16 6 130 -110 168 -169 17
-27 33 -48 38 -48 12 0 8 13 -14 49 -23 38 -17 57 7 22 9 -12 27 -34 40 -49
19 -22 23 -24 24 -9 0 9 -4 17 -10 17 -5 0 -10 5 -10 11 0 6 -7 17 -15 25 -8
8 -18 20 -22 27 -18 27 -83 80 -90 73 -4 -4 -1 -12 7 -17 13 -9 13 -10 0 -6
-9 2 -14 14 -12 26 1 17 -2 21 -15 17 -20 -6 -73 35 -73 56 0 19 -72 78 -96
78 -11 0 -24 3 -28 7 -4 5 -26 13 -49 18 -24 6 -41 16 -39 23 1 7 -2 12 -7 12
-5 0 -11 10 -13 23 -3 18 -5 16 -12 -13z"/>
<path d="M4855 3190 c-3 -5 -1 -10 4 -10 6 0 11 5 11 10 0 6 -2 10 -4 10 -3 0
-8 -4 -11 -10z"/>
<path d="M2126 3163 c-27 -29 -27 -45 -1 -23 17 14 39 50 31 50 -3 0 -16 -12
-30 -27z"/>
<path d="M5084 3144 c46 -43 75 -53 48 -16 -7 9 -15 25 -19 35 -3 10 -12 16
-19 13 -8 -3 -14 -1 -14 4 0 6 -10 10 -22 10 -19 0 -15 -6 26 -46z"/>
<path d="M5148 3183 c-10 -2 -18 -8 -18 -13 0 -5 8 -14 18 -19 14 -7 17 -5 17
15 0 13 0 23 0 23 0 -1 -8 -3 -17 -6z"/>
<path d="M2262 3130 c-12 -10 -22 -21 -22 -26 0 -4 -8 -13 -17 -20 -29 -20 -9
-26 28 -7 18 9 28 18 21 21 -8 2 -4 10 10 21 11 10 17 20 12 23 -5 4 -19 -2
-32 -12z"/>
<path d="M3493 3115 c-43 -23 -103 -69 -103 -79 0 -3 11 0 25 6 14 6 25 14 25
18 0 4 22 19 50 34 27 15 52 31 55 36 9 14 -4 10 -52 -15z"/>
<path d="M2190 3112 c0 -12 3 -12 15 -2 8 7 15 13 15 15 0 1 -7 2 -15 2 -8 0
-15 -7 -15 -15z"/>
<path d="M2345 3120 c-3 -5 -1 -10 4 -10 6 0 11 5 11 10 0 6 -2 10 -4 10 -3 0
-8 -4 -11 -10z"/>
<path d="M2060 3100 c-8 -5 -11 -10 -6 -10 5 0 2 -8 -5 -17 -7 -10 -1 -7 14 6
15 14 27 26 27 28 0 6 -15 3 -30 -7z"/>
<path d="M5208 3103 c6 -2 12 -10 12 -16 0 -6 10 -21 22 -34 12 -13 17 -23 12
-23 -15 1 -40 23 -47 43 -9 23 -35 33 -50 18 -8 -8 -8 -11 1 -11 7 0 23 -10
35 -23 29 -31 56 -40 74 -26 12 10 9 18 -19 46 -17 18 -37 33 -42 32 -6 0 -5
-3 2 -6z"/>
<path d="M2158 3093 c7 -3 16 -2 19 1 4 3 -2 6 -13 5 -11 0 -14 -3 -6 -6z"/>
<path d="M4961 3084 c0 -11 3 -14 6 -6 3 7 2 16 -1 19 -3 4 -6 -2 -5 -13z"/>
<path d="M3700 3065 c0 -22 4 -30 15 -30 6 0 21 -6 35 -13 22 -11 23 -11 8 1
-10 8 -18 20 -18 27 0 7 -7 10 -14 7 -10 -4 -13 -1 -9 9 3 7 0 14 -6 14 -6 0
-11 -7 -11 -15z"/>
<path d="M2025 3039 c-4 -6 -5 -12 -2 -15 2 -3 7 2 10 11 7 17 1 20 -8 4z"/>
<path d="M2115 3038 c-4 -10 -13 -18 -20 -18 -7 0 -15 -7 -19 -15 -7 -19 3
-19 27 0 11 7 26 11 34 8 16 -6 63 15 63 29 0 14 -31 9 -48 -8 -15 -15 -16
-15 -23 2 -6 18 -7 18 -14 2z"/>
<path d="M2542 3024 c-7 -8 -8 -14 -3 -14 10 0 25 19 20 25 -2 1 -10 -3 -17
-11z"/>
<path d="M3449 3004 c-19 -15 -27 -24 -19 -20 8 3 23 9 33 12 9 4 17 10 17 14
0 5 8 11 18 13 13 4 13 5 1 6 -8 0 -31 -11 -50 -25z"/>
<path d="M3741 2983 c40 -44 52 -54 58 -47 6 6 -71 84 -83 84 -6 0 6 -17 25
-37z"/>
<path d="M4800 3000 c0 -11 4 -20 9 -20 5 0 7 9 4 20 -3 11 -7 20 -9 20 -2 0
-4 -9 -4 -20z"/>
<path d="M3780 3001 c0 -5 5 -13 10 -16 6 -3 10 -2 10 4 0 5 -4 13 -10 16 -5
3 -10 2 -10 -4z"/>
<path d="M2117 2986 c-4 -10 -1 -13 9 -9 15 6 19 23 5 23 -5 0 -11 -7 -14 -14z"/>
<path d="M2555 2990 c-3 -5 -2 -10 4 -10 5 0 13 5 16 10 3 6 2 10 -4 10 -5 0
-13 -4 -16 -10z"/>
<path d="M3289 2967 c-21 -20 -40 -48 -44 -68 -4 -18 -14 -43 -21 -55 -8 -11
-11 -24 -7 -27 3 -4 1 -24 -5 -44 -31 -110 -35 -136 -33 -253 1 -69 4 -134 7
-144 6 -18 7 -18 19 5 7 13 11 27 9 31 -3 4 0 26 6 49 8 28 8 45 2 51 -13 13
-4 40 10 32 6 -4 8 1 4 14 -4 12 -1 31 8 44 22 34 36 104 23 117 -8 8 -6 21 7
46 11 19 22 35 26 35 4 0 5 11 2 25 -2 14 3 36 12 50 24 36 20 42 -9 11 -27
-29 -51 -35 -41 -10 3 9 6 22 6 31 0 10 6 13 16 9 12 -4 14 -1 9 13 -3 12 0
23 8 28 11 7 32 43 24 43 -1 0 -18 -15 -38 -33z"/>
<path d="M3690 2992 c0 -7 11 -23 25 -36 33 -31 32 -41 -2 -19 -33 21 -44 34
-37 45 3 4 1 8 -5 8 -13 0 -10 -128 4 -134 6 -2 9 13 6 40 -1 24 0 44 3 44 3
0 20 -13 38 -30 32 -31 48 -38 48 -20 0 6 -4 10 -10 10 -5 0 -10 5 -10 10 0 7
6 7 20 0 11 -6 20 -7 20 -2 0 10 -67 73 -76 71 -4 0 -11 5 -15 13 -7 10 -9 10
-9 0z"/>
<path d="M4060 2976 c0 -8 5 -18 10 -21 6 -3 10 1 10 9 0 8 -4 18 -10 21 -5 3
-10 -1 -10 -9z"/>
<path d="M2585 2970 c-3 -5 -1 -10 4 -10 6 0 11 5 11 10 0 6 -2 10 -4 10 -3 0
-8 -4 -11 -10z"/>
<path d="M3396 2953 c-6 -14 -5 -15 5 -6 7 7 10 15 7 18 -3 3 -9 -2 -12 -12z"/>
<path d="M4090 2943 c0 -14 78 -98 84 -92 4 4 -10 26 -30 50 -36 44 -54 58
-54 42z"/>
<path d="M3957 2919 c4 -13 8 -18 11 -10 2 7 -1 18 -6 23 -8 8 -9 4 -5 -13z"/>
<path d="M4755 2899 c-4 -6 -5 -12 -2 -15 2 -3 7 2 10 11 7 17 1 20 -8 4z"/>
<path d="M4705 2859 c-11 -5 -26 -22 -32 -36 -12 -25 -11 -25 24 8 21 19 40
35 42 37 12 7 -17 -1 -34 -9z"/>
<path d="M4830 2850 c0 -5 7 -7 15 -4 8 4 15 8 15 10 0 2 -7 4 -15 4 -8 0 -15
-4 -15 -10z"/>
<path d="M2620 2827 c0 -4 9 -16 20 -27 11 -11 20 -16 20 -12 0 5 -9 17 -20
27 -11 10 -20 15 -20 12z"/>
<path d="M3800 2814 c0 -8 5 -12 10 -9 6 3 10 10 10 16 0 5 -4 9 -10 9 -5 0
-10 -7 -10 -16z"/>
<path d="M4855 2820 c-3 -5 -1 -10 4 -10 6 0 11 5 11 10 0 6 -2 10 -4 10 -3 0
-8 -4 -11 -10z"/>
<path d="M5360 2808 c0 -16 5 -28 10 -28 13 0 13 20 0 40 -8 12 -10 9 -10 -12z"/>
<path d="M2350 2801 c0 -5 5 -13 10 -16 6 -3 10 -2 10 4 0 5 -4 13 -10 16 -5
3 -10 2 -10 -4z"/>
<path d="M2535 2790 c-3 -5 -1 -10 4 -10 6 0 11 5 11 10 0 6 -2 10 -4 10 -3 0
-8 -4 -11 -10z"/>
<path d="M4748 2787 c-9 -7 -13 -18 -10 -24 5 -7 12 -2 19 13 6 13 10 24 10
24 -1 0 -10 -6 -19 -13z"/>
<path d="M5330 2761 c0 -11 5 -23 12 -27 7 -5 5 -11 -7 -21 -12 -8 -14 -13 -6
-13 8 0 20 -8 27 -17 12 -16 13 -16 14 -2 0 9 -3 19 -7 23 -11 10 -10 40 1 47
12 9 -2 29 -20 29 -8 0 -14 -9 -14 -19z"/>
<path d="M4008 2763 c-3 -4 3 -24 13 -43 17 -32 18 -33 18 -10 0 26 -24 67
-31 53z"/>
<path d="M4628 2763 c7 -3 16 -2 19 1 4 3 -2 6 -13 5 -11 0 -14 -3 -6 -6z"/>
<path d="M4659 2730 c-24 -22 -39 -40 -34 -40 5 0 -6 -13 -25 -29 -19 -16 -32
-33 -27 -37 4 -4 20 6 35 23 84 93 102 116 99 120 -3 2 -24 -14 -48 -37z"/>
<path d="M2591 2750 c-1 -21 16 -46 26 -37 4 5 3 11 -3 15 -6 4 -14 14 -17 22
-5 13 -5 13 -6 0z"/>
<path d="M2690 2752 c0 -11 27 -42 37 -42 3 0 -2 10 -13 23 -10 12 -20 24 -21
26 -2 2 -3 -1 -3 -7z"/>
<path d="M2510 2740 c0 -8 5 -22 10 -30 9 -13 10 -13 10 0 0 8 -5 22 -10 30
-9 13 -10 13 -10 0z"/>
<path d="M4555 2680 c-76 -104 -103 -160 -108 -224 -6 -65 0 -97 14 -74 5 7 9
27 9 43 0 17 7 39 15 49 17 22 20 61 5 51 -5 -3 -10 -3 -10 1 0 8 51 86 61 94
4 3 19 28 34 55 16 28 33 53 39 57 8 5 7 8 -2 8 -6 0 -32 -27 -57 -60z"/>
<path d="M4737 2714 c3 -8 9 -14 14 -14 5 0 9 -7 9 -16 0 -8 -4 -13 -9 -9 -5
3 -12 1 -16 -5 -4 -6 -12 -7 -18 -4 -9 5 -9 4 0 -6 9 -10 8 -16 -3 -27 -20
-20 -18 -37 4 -28 9 4 23 8 30 8 6 0 12 9 12 19 0 10 6 18 13 18 7 0 13 10 15
23 1 15 -8 27 -28 39 -23 13 -28 13 -23 2z"/>
<path d="M2603 2687 c0 -7 9 -13 19 -13 10 0 18 1 18 3 0 1 -8 7 -18 12 -13 7
-19 6 -19 -2z"/>
<path d="M2670 2688 c0 -16 48 -63 56 -55 3 3 -8 19 -25 36 -17 18 -31 26 -31
19z"/>
<path d="M3313 2654 c-41 -41 -55 -74 -33 -74 6 0 10 9 10 20 0 10 10 25 23
31 25 14 57 48 57 61 0 15 -15 6 -57 -38z"/>
<path d="M2740 2683 c0 -3 11 -21 26 -40 14 -18 22 -33 18 -33 -4 0 2 -10 13
-22 11 -13 28 -37 37 -55 16 -33 34 -49 43 -40 6 7 -119 197 -129 197 -5 0 -8
-3 -8 -7z"/>
<path d="M4670 2671 c0 -5 5 -13 10 -16 6 -3 10 -2 10 4 0 5 -4 13 -10 16 -5
3 -10 2 -10 -4z"/>
<path d="M4646 2642 c-3 -4 4 -9 15 -9 23 -2 25 3 4 10 -8 4 -16 3 -19 -1z"/>
<path d="M3397 2634 c-11 -11 3 -24 18 -18 8 4 12 10 9 15 -6 11 -18 12 -27 3z"/>
<path d="M2648 2618 c5 -5 16 -8 23 -6 8 3 3 7 -10 11 -17 4 -21 3 -13 -5z"/>
<path d="M2730 2612 c0 -5 11 -18 24 -29 13 -11 32 -35 42 -52 10 -16 24 -33
32 -36 11 -4 10 1 -3 22 -49 76 -95 122 -95 95z"/>
<path d="M3366 2603 c-6 -14 -5 -15 5 -6 7 7 10 15 7 18 -3 3 -9 -2 -12 -12z"/>
<path d="M4526 2576 c-23 -49 -20 -51 14 -13 33 39 36 47 16 47 -7 0 -21 -15
-30 -34z"/>
<path d="M2685 2590 c-19 -8 -19 -9 3 -9 12 -1 22 4 22 9 0 6 -1 10 -2 9 -2 0
-12 -4 -23 -9z"/>
<path d="M4666 2575 c-3 -8 -1 -15 3 -15 5 0 11 7 15 15 3 8 1 15 -3 15 -5 0
-11 -7 -15 -15z"/>
<path d="M5160 2570 c0 -11 4 -20 9 -20 5 0 11 -6 13 -14 2 -9 10 -11 23 -6
18 7 18 9 -9 19 -18 8 -26 16 -22 26 3 8 1 15 -4 15 -6 0 -10 -9 -10 -20z"/>
<path d="M3322 2550 c-33 -30 -40 -54 -20 -66 7 -5 9 -2 6 7 -6 15 16 42 26
32 3 -4 6 1 6 10 0 17 18 33 27 24 3 -3 -7 -18 -21 -34 -14 -15 -21 -30 -15
-32 5 -1 24 12 40 30 16 18 29 27 29 20 0 -7 5 -9 11 -5 8 4 5 10 -7 18 -11 6
-21 11 -24 11 -3 0 -10 3 -16 7 -6 4 -25 -6 -42 -22z"/>
<path d="M2140 2531 c0 -5 5 -13 10 -16 6 -3 10 -2 10 4 0 5 -4 13 -10 16 -5
3 -10 2 -10 -4z"/>
<path d="M4701 2524 c0 -11 3 -14 6 -6 3 7 2 16 -1 19 -3 4 -6 -2 -5 -13z"/>
<path d="M3748 2523 c6 -2 18 -2 25 0 6 3 1 5 -13 5 -14 0 -19 -2 -12 -5z"/>
<path d="M2220 2510 c0 -5 5 -10 11 -10 5 0 7 5 4 10 -3 6 -8 10 -11 10 -2 0
-4 -4 -4 -10z"/>
<path d="M3770 2500 c0 -5 7 -10 16 -10 8 0 12 5 9 10 -3 6 -10 10 -16 10 -5
0 -9 -4 -9 -10z"/>
<path d="M2140 2486 c0 -9 7 -16 16 -16 17 0 14 22 -4 28 -7 2 -12 -3 -12 -12z"/>
<path d="M2844 2468 c-3 -5 0 -8 5 -8 6 0 11 -9 11 -19 0 -11 5 -23 10 -26 6
-3 10 -24 10 -45 0 -39 13 -59 25 -40 4 6 4 42 0 80 -7 66 -8 70 -32 68 -13
-2 -27 -6 -29 -10z"/>
<path d="M5117 2453 c-7 -11 10 -40 18 -31 4 4 3 14 -3 24 -5 9 -12 12 -15 7z"/>
<path d="M4656 2434 c-8 -20 0 -32 14 -18 5 5 5 15 1 22 -6 11 -10 10 -15 -4z"/>
<path d="M3325 2430 c-3 -6 1 -7 9 -4 18 7 21 14 7 14 -6 0 -13 -4 -16 -10z"/>
<path d="M5270 2425 c7 -9 15 -13 17 -11 7 7 -7 26 -19 26 -6 0 -6 -6 2 -15z"/>
<path d="M4610 2371 c-12 -17 -18 -31 -13 -31 11 1 46 50 40 56 -3 3 -15 -9
-27 -25z"/>
<path d="M4647 2372 c-19 -21 -22 -32 -8 -32 5 0 16 11 25 25 19 29 7 34 -17
7z"/>
<path d="M2049 2363 c-13 -17 -13 -17 6 -3 11 8 22 16 24 17 2 2 0 3 -6 3 -6
0 -17 -8 -24 -17z"/>
<path d="M5320 2354 c0 -8 5 -12 10 -9 6 4 8 11 5 16 -9 14 -15 11 -15 -7z"/>
<path d="M4450 2350 c0 -5 5 -10 11 -10 5 0 7 5 4 10 -3 6 -8 10 -11 10 -2 0
-4 -4 -4 -10z"/>
<path d="M5226 2351 c-5 -7 -3 -18 3 -24 14 -14 20 -6 11 17 -5 15 -9 16 -14
7z"/>
<path d="M2715 2330 c3 -5 10 -10 16 -10 5 0 9 5 9 10 0 6 -7 10 -16 10 -8 0
-12 -4 -9 -10z"/>
<path d="M4566 2314 c-23 -22 -20 -37 4 -22 11 7 20 18 20 25 0 17 -5 16 -24
-3z"/>
<path d="M4450 2309 c0 -5 5 -7 10 -4 6 3 10 8 10 11 0 2 -4 4 -10 4 -5 0 -10
-5 -10 -11z"/>
<path d="M4476 2296 c-9 -15 -15 -33 -12 -39 2 -7 5 -4 5 5 1 9 8 21 17 26 9
5 15 15 12 22 -2 8 -11 3 -22 -14z"/>
<path d="M2884 2285 c4 -38 16 -43 16 -7 0 18 -4 32 -9 32 -5 0 -8 -11 -7 -25z"/>
<path d="M3730 2302 c0 -4 14 -19 31 -31 24 -18 28 -25 18 -32 -8 -5 -9 -9 -3
-9 5 0 15 5 22 12 9 9 12 7 12 -10 0 -16 4 -20 17 -15 14 5 10 13 -23 41 -45
39 -74 56 -74 44z"/>
<path d="M3868 2290 c10 -12 18 -16 21 -9 2 6 -3 15 -10 20 -24 15 -29 10 -11
-11z"/>
<path d="M4513 2295 c-3 -9 -3 -19 1 -22 3 -4 6 1 6 10 0 8 6 18 13 20 9 4 9
6 -1 6 -7 1 -15 -6 -19 -14z"/>
<path d="M3184 2279 c-3 -6 -2 -15 4 -21 6 -6 11 -2 15 11 5 22 -7 29 -19 10z"/>
<path d="M2810 2272 c0 -5 7 -17 16 -28 14 -17 15 -17 10 -1 -3 10 -6 23 -6
28 0 5 -4 9 -10 9 -5 0 -10 -4 -10 -8z"/>
<path d="M2850 2261 c0 -6 5 -13 10 -16 6 -3 10 1 10 9 0 9 -4 16 -10 16 -5 0
-10 -4 -10 -9z"/>
<path d="M3905 2250 c3 -5 8 -10 11 -10 2 0 4 5 4 10 0 6 -5 10 -11 10 -5 0
-7 -4 -4 -10z"/>
<path d="M3937 2213 c3 -13 10 -23 15 -23 5 0 6 -10 3 -21 -5 -14 -3 -19 4
-15 10 7 81 -92 81 -113 0 -5 10 -17 22 -25 12 -9 19 -18 15 -22 -8 -8 -28 12
-52 54 -11 17 -23 32 -27 32 -4 0 -8 7 -8 15 0 8 -9 19 -19 25 -11 5 -27 22
-36 38 -18 30 -65 69 -65 53 0 -5 7 -17 16 -25 8 -9 12 -16 7 -16 -4 0 16 -22
45 -49 28 -27 52 -52 52 -56 0 -3 14 -20 30 -38 17 -18 33 -43 37 -57 3 -14
11 -31 16 -39 14 -17 18 -36 20 -92 1 -34 4 -43 12 -35 15 13 11 164 -4 179
-6 6 -11 18 -11 27 0 9 -8 25 -18 36 -9 10 -32 42 -50 69 -17 28 -45 66 -62
85 -24 28 -28 31 -23 13z"/>
<path d="M3207 2176 c-18 -14 -25 -72 -6 -61 6 4 8 10 5 13 -4 3 1 16 10 30
19 28 16 35 -9 18z"/>
<path d="M3429 2123 c-13 -16 -12 -17 4 -4 16 13 21 21 13 21 -2 0 -10 -8 -17
-17z"/>
<path d="M3870 2125 c0 -8 9 -10 25 -7 14 2 25 6 25 7 0 1 -11 5 -25 7 -16 3
-25 1 -25 -7z"/>
<path d="M3913 2097 c4 -10 0 -20 -11 -26 -15 -9 -14 -10 6 -11 24 0 32 33 10
46 -8 5 -9 2 -5 -9z"/>
<path d="M4769 2028 l-23 -31 32 18 c18 11 32 25 32 32 0 22 -18 14 -41 -19z"/>
<path d="M4661 2034 c0 -11 3 -14 6 -6 3 7 2 16 -1 19 -3 4 -6 -2 -5 -13z"/>
<path d="M3353 2026 c3 -7 -3 -20 -14 -29 -10 -9 -19 -22 -19 -29 0 -8 5 -5
11 5 5 9 19 17 31 17 14 0 18 5 14 16 -3 9 -6 20 -6 25 0 5 -5 9 -11 9 -6 0
-9 -6 -6 -14z"/>
<path d="M2064 1994 c3 -7 -1 -25 -9 -40 -8 -16 -15 -35 -15 -41 0 -24 15 -12
32 25 16 34 16 38 1 52 -8 8 -13 10 -9 4z"/>
<path d="M3846 1992 c-3 -6 -1 -14 5 -17 14 -9 20 -2 10 14 -6 8 -11 9 -15 3z"/>
<path d="M4760 1951 c0 -6 5 -13 10 -16 6 -3 10 1 10 9 0 9 -4 16 -10 16 -5 0
-10 -4 -10 -9z"/>
<path d="M2545 1940 c-3 -5 1 -10 10 -10 9 0 13 5 10 10 -3 6 -8 10 -10 10 -2
0 -7 -4 -10 -10z"/>
<path d="M2860 1907 c0 -24 -3 -27 -20 -22 -17 6 -20 2 -20 -28 0 -30 3 -34
25 -34 28 0 31 7 13 25 -7 7 -8 12 -2 12 6 0 15 -5 22 -12 10 -10 12 -6 9 17
-2 17 -8 39 -15 50 -11 19 -11 18 -12 -8z"/>
<path d="M3273 1895 c0 -8 4 -15 9 -15 4 0 8 4 8 9 0 6 -4 12 -8 15 -5 3 -9
-1 -9 -9z"/>
<path d="M3882 1888 c3 -7 13 -15 24 -17 16 -3 17 -1 5 13 -16 19 -34 21 -29
4z"/>
<path d="M2225 1879 c-4 -6 -5 -12 -2 -15 2 -3 7 2 10 11 7 17 1 20 -8 4z"/>
<path d="M3225 1820 c-3 -5 -1 -10 4 -10 6 0 11 5 11 10 0 6 -2 10 -4 10 -3 0
-8 -4 -11 -10z"/>
<path d="M4036 1813 c-6 -14 -5 -15 5 -6 7 7 10 15 7 18 -3 3 -9 -2 -12 -12z"/>
<path d="M5130 1819 c0 -5 5 -7 10 -4 6 3 10 8 10 11 0 2 -4 4 -10 4 -5 0 -10
-5 -10 -11z"/>
<path d="M3221 1774 c0 -11 3 -14 6 -6 3 7 2 16 -1 19 -3 4 -6 -2 -5 -13z"/>
<path d="M4570 1775 c0 -8 2 -15 4 -15 2 0 6 7 10 15 3 8 1 15 -4 15 -6 0 -10
-7 -10 -15z"/>
<path d="M4060 1768 c0 -7 9 -24 20 -38 16 -20 20 -22 20 -7 0 9 -4 17 -10 17
-5 0 -10 6 -10 14 0 8 -4 18 -10 21 -5 3 -10 0 -10 -7z"/>
<path d="M4095 1770 c4 -6 11 -8 16 -5 14 9 11 15 -7 15 -8 0 -12 -5 -9 -10z"/>
<path d="M2760 1726 c0 -7 8 -20 17 -27 15 -12 16 -12 10 4 -4 10 -7 23 -7 28
0 5 -4 9 -10 9 -5 0 -10 -6 -10 -14z"/>
<path d="M4515 1721 c-3 -10 -1 -29 4 -42 9 -21 10 -19 10 19 1 45 -4 54 -14
23z"/>
<path d="M2817 1623 c-3 -44 -2 -82 4 -87 5 -6 10 10 11 45 1 29 2 69 3 87 1
17 -1 32 -5 32 -4 0 -10 -35 -13 -77z"/>
<path d="M4080 1676 c0 -9 5 -16 10 -16 6 0 10 4 10 9 0 6 -4 13 -10 16 -5 3
-10 -1 -10 -9z"/>
<path d="M4737 1666 c-4 -10 -5 -21 -2 -24 9 -9 17 6 13 25 -3 17 -4 17 -11
-1z"/>
<path d="M4694 1648 l-19 -23 23 19 c12 11 22 21 22 23 0 8 -8 2 -26 -19z"/>
<path d="M4520 1616 c0 -20 2 -36 4 -36 8 0 12 61 4 66 -4 3 -8 -11 -8 -30z"/>
<path d="M2575 1630 c3 -5 8 -10 11 -10 2 0 4 5 4 10 0 6 -5 10 -11 10 -5 0
-7 -4 -4 -10z"/>
<path d="M4056 1615 c4 -8 10 -12 15 -9 11 6 2 24 -11 24 -5 0 -7 -7 -4 -15z"/>
<path d="M2606 1612 c-3 -6 -1 -14 5 -17 15 -10 25 3 12 16 -7 7 -13 7 -17 1z"/>
<path d="M4668 1573 c7 -3 16 -2 19 1 4 3 -2 6 -13 5 -11 0 -14 -3 -6 -6z"/>
<path d="M4615 1559 c-4 -6 -5 -13 -2 -16 7 -7 27 6 27 18 0 12 -17 12 -25 -2z"/>
<path d="M4533 1515 c0 -22 2 -30 4 -17 2 12 2 30 0 40 -3 9 -5 -1 -4 -23z"/>
<path d="M3756 1512 c-7 -11 31 -48 41 -38 4 3 -2 16 -14 27 -11 12 -23 17
-27 11z"/>
<path d="M2678 1493 c7 -3 16 -2 19 1 4 3 -2 6 -13 5 -11 0 -14 -3 -6 -6z"/>
<path d="M2791 1484 c0 -11 3 -14 6 -6 3 7 2 16 -1 19 -3 4 -6 -2 -5 -13z"/>
<path d="M2810 1453 c-3 -23 -2 -39 3 -34 5 5 7 24 5 42 -3 33 -4 33 -8 -8z"/>
<path d="M4027 1131 c-3 -38 -2 -82 3 -98 8 -26 8 -24 10 17 1 25 3 69 5 98 4
78 -11 63 -18 -17z"/>
<path d="M3790 1012 c1 -9 26 -42 33 -42 11 0 -6 39 -19 44 -8 3 -14 2 -14 -2z"/>
<path d="M3840 1010 c0 -5 5 -10 10 -10 6 0 10 5 10 10 0 6 -4 10 -10 10 -5 0
-10 -4 -10 -10z"/>
<path d="M3928 1013 c7 -3 16 -2 19 1 4 3 -2 6 -13 5 -11 0 -14 -3 -6 -6z"/>
<path d="M3888 1003 c7 -3 16 -2 19 1 4 3 -2 6 -13 5 -11 0 -14 -3 -6 -6z"/>
<path d="M4019 988 c-1 -7 -3 -23 -4 -35 -1 -13 2 -23 6 -23 5 0 9 6 9 13 0 6
3 22 6 35 4 13 2 22 -5 22 -6 0 -12 -6 -12 -12z"/>
<path d="M3916 982 c-7 -12 19 -35 34 -30 7 2 3 11 -8 21 -11 10 -23 14 -26 9z"/>
</g>
</svg>
